<?xml version="1.0" standalone="no"?><!DOCTYPE svg PUBLIC "-//W3C//DTD SVG 1.1//EN" "http://www.w3.org/Graphics/SVG/1.1/DTD/svg11.dtd"><svg t="1580987503830" class="icon" viewBox="0 0 1024 1024" version="1.1" xmlns="http://www.w3.org/2000/svg" p-id="9104" xmlns:xlink="http://www.w3.org/1999/xlink" width="64" height="64"><defs><style type="text/css"></style></defs><path d="M941.182 398.168l-106.911-81.223c-12.692-11.54-25.53-25.453-42.705-25.345H642.465v-55.913c-0.05-32.439-32.128-56.014-64.656-56.066H123.637c-32.528 0.052-58.888 26.335-58.942 58.772v482.17c0.054 32.439 23.387 55.566 55.915 55.617h134.839c10.976 39.135 46.911 67.834 89.551 67.834s78.576-28.699 89.551-67.834h152c13.266-0.058 17.465-1.463 27.785-9.777a68.146 68.146 0 0 0 40.058 12.935l9.855-0.074 38.622 0.156c11.895 37.658 47.104 64.96 88.694 64.96 42.717 0 78.703-28.803 89.609-68.046l3.58-0.154c35.669 0 74.551-23.185 74.551-55.617V439.156a55.835 55.835 0 0 0-18.123-40.988zM345 793.013c-23.747 0-43-19.251-43-43 0-23.747 19.253-43 43-43s43 21.919 43 43c0 23.749-19.253 43-43 43z m247.346-88.262c0 15.722-9.796 21.435-14.919 21.435l-142.797-0.046c-10.878-39.284-46.884-68.127-89.631-68.127-42.753 0-78.764 28.852-89.636 68.146H133.775c-5.39 0-18.638-2.579-18.638-18.638s-0.167-449.509-0.167-456.509 1.653-21.464 18.638-21.464H573.55c9.552 0 18.919 6.964 18.919 18.606 0.002 11.644-0.123 440.875-0.123 456.597z m199.22 89.628c-23.747 0-43-19.251-43-43 0-23.747 19.253-43 43-43s43 19.253 43 43c0 23.749-19.253 43-43 43z m90.244-65.538c-10.075-40.471-46.655-70.461-90.244-70.461-42.625 0-78.55 28.678-89.54 67.79h-41.19c-19.538 0-18.638-9.281-18.638-18.275s0.265-375.798 0.265-375.798c0-5.515 8.337-3.221 18.638-3.221H763.93c5.196-0.125 6.609 0.298 10.56 3.67l67.626 47.243H735.653c-13.009 0-18.638 5.664-18.638 18.638v191.377c0 12.97 13.242 17.493 26.251 17.493l165.826 1.144v63.188c0 16.03 2.18 55.513-27.282 57.212z m-114.728-170.62l-0.042-128.47H889.556l19.64 18.638 0.007 109.671-142.121 0.161z" p-id="9105"></path></svg>