<?xml version="1.0" standalone="no"?><!DOCTYPE svg PUBLIC "-//W3C//DTD SVG 1.1//EN" "http://www.w3.org/Graphics/SVG/1.1/DTD/svg11.dtd"><svg t="1580987367330" class="icon" viewBox="0 0 1024 1024" version="1.1" xmlns="http://www.w3.org/2000/svg" p-id="5111" xmlns:xlink="http://www.w3.org/1999/xlink" width="64" height="64"><defs><style type="text/css"></style></defs><path d="M979.626667 945.493333l-98.417778-95.004444c21.617778-28.444444 33.564444-61.44 33.564444-99.555556 0-92.728889-74.524444-166.115556-168.391111-166.115555s-168.391111 73.386667-168.391111 166.115555c0 92.728889 74.524444 166.115556 168.391111 166.115556 38.684444 0 72.248889-11.946667 101.262222-32.995556l100.693334 97.28c9.671111 9.671111 23.893333 9.671111 33.564444 0 7.395556-9.671111 7.395556-26.168889-2.275555-35.84z m-233.244445-75.662222c-67.128889 0-120.035556-52.337778-120.035555-118.897778s52.906667-118.897778 120.035555-118.897777 120.035556 52.337778 120.035556 118.897777-52.906667 118.897778-120.035556 118.897778zM203.093333 442.026667c-11.946667 0-23.893333 9.671111-23.893333 23.893333s9.671111 23.893333 23.893333 23.893333h490.382223c11.946667 0 23.893333-9.671111 23.893333-23.893333s-9.671111-23.893333-23.893333-23.893333H203.093333z m490.382223-166.115556H203.093333c-11.946667 0-23.893333 9.671111-23.893333 23.893333s9.671111 23.893333 23.893333 23.893334h490.382223c11.946667 0 23.893333-9.671111 23.893333-23.893334s-9.671111-23.893333-23.893333-23.893333z m-514.275556 356.124445c0 14.222222 9.671111 23.893333 23.893333 23.893333h329.955556v-47.786667h-329.955556c-14.222222 0-23.893333 9.671111-23.893333 23.893334z m-96.142222 175.217777V138.24c0-26.168889 21.617778-52.337778 48.355555-52.337778h634.88c26.168889 0 48.355556 21.617778 48.355556 47.786667v374.328889h48.355555V133.688889c-2.275556-52.337778-45.511111-95.004444-96.142222-95.004445H130.844444c-50.631111 0-93.866667 47.217778-93.866666 99.555556v669.013333c0 52.337778 40.96 95.004444 93.866666 95.004445h382.293334v-47.786667H130.844444c-26.168889 0-47.786667-21.048889-47.786666-47.217778z m0 0" p-id="5112" fill="#2d2d2d"></path></svg>