<?xml version="1.0" standalone="no"?><!DOCTYPE svg PUBLIC "-//W3C//DTD SVG 1.1//EN" "http://www.w3.org/Graphics/SVG/1.1/DTD/svg11.dtd"><svg t="1580987468506" class="icon" viewBox="0 0 1024 1024" version="1.1" xmlns="http://www.w3.org/2000/svg" p-id="7538" xmlns:xlink="http://www.w3.org/1999/xlink" width="64" height="64"><defs><style type="text/css"></style></defs><path d="M293.906 468.005c-16.225-0.006-29.428-13.207-29.435-29.426 0.007-9.199 4.229-17.672 11.598-23.313l142.455-142.942c6.226-6.216 14.636-9.776 23.085-9.776 7.704 0 14.846 2.897 20.106 8.157 11.489 11.493 10.79 30.888-1.56 43.235l-94.909 95.203h368.431c16.23 0 29.436 13.204 29.436 29.436-0.013 16.222-13.216 29.423-29.434 29.429l-439.773-0.003zM585.91 761.206c-7.711 0-14.853-2.912-20.106-8.199-5.603-5.591-8.501-13.224-8.146-21.478 0.347-8.094 3.796-15.81 9.713-21.728l95.274-95.213H293.906c-16.228 0-29.434-13.199-29.438-29.422 0.005-16.232 13.209-29.437 29.434-29.437h439.881c3.253 0.074 6.584 0.758 9.9 2.032 0.096 0.032 0.189 0.063 0.284 0.092 0.308 0.099 0.612 0.198 0.915 0.314l0.387 0.166c3.538 1.438 6.634 3.475 9.199 6.054 6.241 6.241 9.072 15.177 7.759 24.506-0.384 3.045-1.147 5.879-2.265 8.35a33.193 33.193 0 0 1-7.058 10.361L608.992 751.416c-6.219 6.221-14.632 9.789-23.079 9.789l-0.003 0.001z" fill="#040000" p-id="7539"></path><path d="M828.646 96.698H195.359c-54.404 0-98.663 44.248-98.663 98.635v647.066c0 5.77 0.58 11.521 1.725 17.095a84.25 84.25 0 0 0 4.947 15.941 85.04 85.04 0 0 0 7.829 14.438c15.824 23.438 42.143 37.431 70.398 37.431H842.42c40.146 0 75.121-28.519 83.167-67.813a85.686 85.686 0 0 0 1.722-17.091V195.333c0.002-54.388-44.259-98.635-98.663-98.635z m-674.924 98.635c0-22.942 18.678-41.608 41.638-41.608h633.289c22.955 0 41.633 18.666 41.633 41.608v647.066c0 15.379-12.502 27.893-27.869 27.893H181.596c-15.37 0-27.874-12.514-27.874-27.893V195.333z" fill="#040000" p-id="7540"></path></svg>