<?xml version="1.0" standalone="no"?><!DOCTYPE svg PUBLIC "-//W3C//DTD SVG 1.1//EN" "http://www.w3.org/Graphics/SVG/1.1/DTD/svg11.dtd"><svg t="1580987488220" class="icon" viewBox="0 0 1024 1024" version="1.1" xmlns="http://www.w3.org/2000/svg" p-id="8353" xmlns:xlink="http://www.w3.org/1999/xlink" width="64" height="64"><defs><style type="text/css"></style></defs><path d="M265.728 502.897778a64 64 0 1 0 128 0 64 64 0 0 0-128 0zM560.753778 502.897778a64 64 0 1 0 128 0 64 64 0 0 0-128 0z" fill="#666666" p-id="8354"></path><path d="M996.693333 446.122667C977.464889 196.949333 768.056889 0 513.194667 0 258.844444 0 49.720889 196.266667 29.980444 444.871111A47.502222 47.502222 0 0 0 0 488.903111v59.505778c0 17.123556 9.329778 32.085333 23.153778 40.391111a465.294222 465.294222 0 0 0 420.181333 374.158222 47.672889 47.672889 0 0 0 46.250667 36.693334h56.490666c26.168889 0 47.616-21.333333 47.616-47.388445v-33.109333a47.616 47.616 0 0 0-47.616-47.388445h-56.490666a47.559111 47.559111 0 0 0-41.870222 25.429334 399.132444 399.132444 0 0 1-355.896889-304.583111 47.445333 47.445333 0 0 0 30.890666-44.202667V488.846222a47.388444 47.388444 0 0 0-26.396444-42.211555c18.773333-212.992 198.428444-380.700444 416.995555-380.700445 217.998222 0 397.425778 167.025778 416.824889 379.392a47.559111 47.559111 0 0 0-28.842666 43.52v59.505778c0 26.055111 21.390222 47.388444 47.559111 47.388444h27.591111c26.168889 0 47.559111-21.333333 47.559111-47.388444V488.846222a47.445333 47.445333 0 0 0-27.306667-42.666666z" fill="#666666" p-id="8355"></path></svg>