<?xml version="1.0" standalone="no"?><!DOCTYPE svg PUBLIC "-//W3C//DTD SVG 1.1//EN" "http://www.w3.org/Graphics/SVG/1.1/DTD/svg11.dtd"><svg t="1580989574243" class="icon" viewBox="0 0 1027 1024" version="1.1" xmlns="http://www.w3.org/2000/svg" p-id="2267" xmlns:xlink="http://www.w3.org/1999/xlink" width="64.1875" height="64"><defs><style type="text/css"></style></defs><path d="M5.12 513.024c0 282.112 228.864 510.976 510.976 510.976s510.976-228.864 510.976-510.976-228.864-510.976-510.976-510.976-510.976 228.864-510.976 510.976z" fill="#FFFFFF" p-id="2268"></path><path d="M771.584 782.336c-20.992-22.016-163.328-42.496-163.328-42.496l-92.672 7.68v276.48h1.024c111.616-0.512 214.528-36.352 298.496-97.28-14.336-62.976-32.256-133.12-43.52-144.384zM259.584 782.336c-10.752 11.264-29.184 81.408-43.52 144.384 83.968 60.928 186.88 96.768 298.496 97.28h1.024v-276.48l-92.672-7.68s-142.336 20.48-163.328 42.496z" fill="#065382" p-id="2269"></path><path d="M440.832 642.048h149.504V716.8l-74.752 30.72-74.752-30.208v-75.264z" fill="#D9A78C" p-id="2270"></path><path d="M515.584 172.544c72.704 0 187.392 41.472 187.392 235.008 0 111.616-36.352 184.832-52.224 205.312-14.848 18.432-96.768 58.368-135.168 58.368v-498.688z" fill="#EAC0A7" p-id="2271"></path><path d="M739.328 453.632c3.072-30.72-11.776-58.368-32.768-61.44-21.504-3.072-41.472 19.968-44.544 50.688-3.072 30.72 11.776 58.368 32.768 61.44 21.504 2.56 41.472-19.968 44.544-50.688z" fill="#EAC0A7" p-id="2272"></path><path d="M515.584 172.544c-72.704 0-187.392 41.472-187.392 235.008 0 111.616 36.352 184.832 52.224 205.312 14.848 18.432 96.768 58.368 135.168 58.368v-498.688z" fill="#F2D7BC" p-id="2273"></path><path d="M291.84 453.632c-3.072-30.72 11.776-58.368 32.768-61.44 21.504-3.072 41.472 19.968 44.544 50.688 3.072 30.72-11.776 58.368-32.768 61.44-20.992 2.56-40.96-19.968-44.544-50.688z" fill="#F2D7BC" p-id="2274"></path><path d="M515.584 747.52l-75.776-30.72-18.944 18.944 37.888 83.968 56.832-72.192zM515.584 747.52l75.776-30.72 18.944 18.944-37.888 83.968-56.832-72.192z" fill="#FFFFFF" p-id="2275"></path><path d="M707.072 396.8s61.44-280.064-193.024-280.064c-255.488 0-191.488 272.384-191.488 272.384s34.816-19.968 34.816 69.632h6.656s12.288-59.904 16.384-113.664c90.112 0 169.472-11.776 236.032-67.072 37.888 0 43.008 47.104 43.008 83.456l-16.384 6.656s15.872 31.744 17.408 90.624h11.776c-0.512-0.512-2.048-98.816 34.816-61.952z" fill="#2F343A" p-id="2276"></path><path d="M515.584 597.504c33.792 0 61.44-11.264 61.44-25.088h-122.368c-0.512 14.336 27.136 25.088 60.928 25.088z" fill="#FFFFFF" p-id="2277"></path></svg>